<svg xmlns="http://www.w3.org/2000/svg" viewBox="0 0 92.105 20" overflow="visible"><path d="M 0 2.024 L 0 4.05 L 10.928 4.05 L 0 15.95 L 0 20 L 16.011 20 L 16.011 15.95 L 5.058 15.95 L 16.011 4.05 L 16.011 0 L 2.004 0 Z M 22.024 2.024 L 22.024 20 L 38.033 20 L 38.033 15.95 L 26.032 15.95 L 26.032 12.024 L 34.125 12.024 L 34.125 7.976 L 26.032 7.976 L 26.032 4.05 L 38.033 4.05 L 38.033 0 L 24.027 0 L 22.024 2.024 Z M 48.056 0 L 46.053 0 L 44.049 2.024 L 44.049 20 L 60.058 20 L 60.058 15.95 L 48.056 15.95 Z M 66.071 2.024 L 66.071 20 L 70.081 20 L 70.081 0 L 68.077 0 Z M 92.105 4.05 L 92.105 0 L 78.1 0 L 76.094 2.024 L 76.094 20 L 92.105 20 L 92.105 7.976 L 84.114 7.976 L 84.114 12.024 L 88.096 12.024 L 88.096 15.95 L 80.104 15.95 L 80.104 4.05 Z" fill="#000000"/></svg>
